<mxfile host="app.diagrams.net" modified="2023-05-17T08:25:17.004Z" agent="Mozilla/5.0 (Windows NT 10.0; Win64; x64; rv:109.0) Gecko/20100101 Firefox/113.0" etag="q1V7DIJlazkfqBU3pCqe" version="21.3.2" type="device">
  <diagram name="1 oldal" id="efUGQUTGYi6EQR7r4Sqp">
    <mxGraphModel dx="1240" dy="429" grid="1" gridSize="10" guides="1" tooltips="1" connect="1" arrows="1" fold="1" page="0" pageScale="1" pageWidth="827" pageHeight="1169" math="0" shadow="0">
      <root>
        <mxCell id="0" />
        <mxCell id="1" parent="0" />
        <mxCell id="qI7ad0C5QOCOGanBFrG0-10" value="Text" style="text;html=1;align=center;verticalAlign=middle;resizable=0;points=[];autosize=1;strokeColor=none;fillColor=none;" parent="1" vertex="1">
          <mxGeometry x="810" y="1148" width="40" height="30" as="geometry" />
        </mxCell>
        <mxCell id="qI7ad0C5QOCOGanBFrG0-22" value="&lt;p style=&quot;margin:0px;margin-top:4px;text-align:center;&quot;&gt;&lt;i&gt;&amp;lt;&amp;lt;abstract&amp;gt;&amp;gt;&lt;/i&gt;&lt;b&gt;&lt;br&gt;&lt;/b&gt;&lt;/p&gt;&lt;p style=&quot;margin:0px;margin-top:4px;text-align:center;&quot;&gt;&lt;b&gt;Vetitoterem&lt;/b&gt;&lt;br&gt;&lt;b&gt;&lt;/b&gt;&lt;/p&gt;&lt;hr size=&quot;1&quot;&gt;&lt;div&gt;&amp;nbsp;+ alapAr : int&lt;/div&gt;&lt;div&gt;&amp;nbsp;+ sorokSzama : int&lt;/div&gt;&lt;div&gt;&amp;nbsp;+ ulesSorban : int&lt;/div&gt;&lt;hr size=&quot;1&quot;&gt;&lt;p style=&quot;margin:0px;margin-left:4px;&quot;&gt;+ Vetitoterem(alapAr:int, sorokSzama:int, ulesSorban:int)&lt;br&gt;+ eloadasAdatai() : (int&lt;sup&gt;3&lt;/sup&gt;)*&lt;/p&gt;&lt;p style=&quot;margin:0px;margin-left:4px;&quot;&gt;+ Gyerek() : int&lt;/p&gt;&lt;p style=&quot;margin:0px;margin-left:4px;&quot;&gt;+ Diak() : int&lt;/p&gt;&lt;p style=&quot;margin:0px;margin-left:4px;&quot;&gt;+ Felnott() : int&lt;/p&gt;&lt;p style=&quot;margin:0px;margin-left:4px;&quot;&gt;+ Nyugdijas() : int&lt;/p&gt;&lt;p style=&quot;margin:0px;margin-left:4px;&quot;&gt;+ Torzstag() : int&lt;/p&gt;&lt;p style=&quot;margin:0px;margin-left:4px;&quot;&gt;+ Kozepes() : boolean&lt;br&gt;&lt;/p&gt;&lt;p style=&quot;margin:0px;margin-left:4px;&quot;&gt;+ Nagy() : boolean&lt;/p&gt;&lt;p style=&quot;margin:0px;margin-left:4px;&quot;&gt;+ Vip() : Boolean&lt;/p&gt;&lt;p style=&quot;margin:0px;margin-left:4px;&quot;&gt;+ KeresettEloadas(cim:string, ido:Ido, terem:Terem) : Film&lt;/p&gt;&lt;p style=&quot;margin:0px;margin-left:4px;&quot;&gt;+ UjEloadas(eloadas:Film)&lt;/p&gt;&lt;p style=&quot;margin:0px;margin-left:4px;&quot;&gt;+ ValosUles(ules:Ules)&lt;/p&gt;" style="verticalAlign=top;align=left;overflow=fill;fontSize=12;fontFamily=Helvetica;html=1;whiteSpace=wrap;" parent="1" vertex="1">
          <mxGeometry x="570" y="280" width="450" height="310" as="geometry" />
        </mxCell>
        <mxCell id="qI7ad0C5QOCOGanBFrG0-23" value="&lt;p style=&quot;margin:0px;margin-top:4px;text-align:center;&quot;&gt;&lt;b&gt;Szinhaz&lt;/b&gt;&lt;br&gt;&lt;/p&gt;&lt;hr size=&quot;1&quot;&gt;&lt;p style=&quot;margin:0px;margin-left:4px;&quot;&gt;+ nezettsegek :&amp;nbsp; string*&lt;/p&gt;&lt;div&gt;&amp;nbsp;+ legtobbetNezettFilm {get; set;} : string&lt;/div&gt;&lt;hr size=&quot;1&quot;&gt;&lt;div&gt;&lt;div&gt;&amp;nbsp;+ Szinhaz()&lt;/div&gt;&lt;div&gt;&amp;nbsp;+ vetitokAdatai() : ((int&lt;sup&gt;3&lt;/sup&gt;)*)*&lt;/div&gt;&amp;nbsp;+ Ar(vetito:Vetitoterem, tipus:Tipus) : int&lt;/div&gt;&lt;div&gt;&amp;nbsp;+ JegyEladas(nev:string, cim:string, ido:Ido, terem:Terem, tipus:Tipus) : int&lt;/div&gt;&lt;div&gt;&amp;nbsp;+ Lefoglal(nev:string, cim:string, ido:Ido, terem:Terem, ules:Ules)&lt;/div&gt;&lt;div&gt;&amp;nbsp;+ TeremNyitas(vetito:Vetitoterem)&lt;br&gt;&lt;/div&gt;" style="verticalAlign=top;align=left;overflow=fill;fontSize=12;fontFamily=Helvetica;html=1;whiteSpace=wrap;" parent="1" vertex="1">
          <mxGeometry x="585" y="40" width="420" height="180" as="geometry" />
        </mxCell>
        <mxCell id="qI7ad0C5QOCOGanBFrG0-24" value="&lt;p style=&quot;margin:0px;margin-top:4px;text-align:center;&quot;&gt;&lt;b&gt;KozepesTerem&lt;/b&gt;&lt;br&gt;&lt;/p&gt;&lt;hr size=&quot;1&quot;&gt;&lt;p style=&quot;margin:0px;margin-left:4px;&quot;&gt;+ KozepesTerem(alapAr:int, sorokSzama:int, ulesSorban:int)&lt;br&gt;&lt;/p&gt;&lt;p style=&quot;margin:0px;margin-left:4px;&quot;&gt;+ Gyerek() : int &amp;nbsp;&amp;nbsp; {override}&lt;br&gt;&lt;/p&gt;&lt;p style=&quot;margin:0px;margin-left:4px;&quot;&gt;+ Diak() : int &amp;nbsp;&amp;nbsp; {override}&lt;/p&gt;&lt;p style=&quot;margin:0px;margin-left:4px;&quot;&gt;+ Felnott() : int &amp;nbsp;&amp;nbsp; {override}&lt;/p&gt;&lt;p style=&quot;margin:0px;margin-left:4px;&quot;&gt;+ Nyugdijas() : int &amp;nbsp; &amp;nbsp;{override}&lt;/p&gt;&lt;p style=&quot;margin:0px;margin-left:4px;&quot;&gt;+ Torzstag() : int &amp;nbsp;&amp;nbsp; {override}&lt;/p&gt;&lt;p style=&quot;margin:0px;margin-left:4px;&quot;&gt;+ Kozepes() : boolean&lt;/p&gt;&lt;p style=&quot;margin:0px;margin-left:4px;&quot;&gt;&lt;/p&gt;" style="verticalAlign=top;align=left;overflow=fill;fontSize=12;fontFamily=Helvetica;html=1;whiteSpace=wrap;" parent="1" vertex="1">
          <mxGeometry x="230" y="680" width="350" height="140" as="geometry" />
        </mxCell>
        <mxCell id="qI7ad0C5QOCOGanBFrG0-25" value="" style="endArrow=block;dashed=1;endFill=0;endSize=12;html=1;rounded=0;entryX=0.5;entryY=1;entryDx=0;entryDy=0;exitX=0.5;exitY=0;exitDx=0;exitDy=0;edgeStyle=elbowEdgeStyle;elbow=vertical;" parent="1" source="qI7ad0C5QOCOGanBFrG0-24" target="qI7ad0C5QOCOGanBFrG0-22" edge="1">
          <mxGeometry width="160" relative="1" as="geometry">
            <mxPoint x="790" y="720" as="sourcePoint" />
            <mxPoint x="950" y="580" as="targetPoint" />
            <Array as="points">
              <mxPoint x="760" y="640" />
              <mxPoint x="770" y="640" />
              <mxPoint x="600" y="640" />
            </Array>
          </mxGeometry>
        </mxCell>
        <mxCell id="qI7ad0C5QOCOGanBFrG0-26" value="&lt;p style=&quot;margin:0px;margin-top:4px;text-align:center;&quot;&gt;&lt;b&gt;NagyTerem&lt;/b&gt;&lt;br&gt;&lt;/p&gt;&lt;hr size=&quot;1&quot;&gt;&lt;p style=&quot;margin:0px;margin-left:4px;&quot;&gt;+ NagyTerem(alapAr:int, sorokSzama:int, ulesSorban:int)&lt;br&gt;&lt;/p&gt;&lt;p style=&quot;margin:0px;margin-left:4px;&quot;&gt;+ Gyerek() : int &amp;nbsp;&amp;nbsp; {override}&lt;br&gt;&lt;/p&gt;&lt;p style=&quot;margin:0px;margin-left:4px;&quot;&gt;+ Diak() : int &amp;nbsp;&amp;nbsp; {override}&lt;/p&gt;&lt;p style=&quot;margin:0px;margin-left:4px;&quot;&gt;+ Nyugdijas() : int &amp;nbsp; &amp;nbsp;{override}&lt;/p&gt;&lt;p style=&quot;margin:0px;margin-left:4px;&quot;&gt;+ Torzstag() : int &amp;nbsp;&amp;nbsp; {override}&lt;/p&gt;&lt;p style=&quot;margin:0px;margin-left:4px;&quot;&gt;+ Nagy() : boolean&lt;/p&gt;&lt;p style=&quot;margin:0px;margin-left:4px;&quot;&gt;&lt;/p&gt;" style="verticalAlign=top;align=left;overflow=fill;fontSize=12;fontFamily=Helvetica;html=1;whiteSpace=wrap;" parent="1" vertex="1">
          <mxGeometry x="622.5" y="680" width="345" height="130" as="geometry" />
        </mxCell>
        <mxCell id="qI7ad0C5QOCOGanBFrG0-28" style="edgeStyle=orthogonalEdgeStyle;rounded=0;orthogonalLoop=1;jettySize=auto;html=1;exitX=0.5;exitY=0;exitDx=0;exitDy=0;" parent="1" source="qI7ad0C5QOCOGanBFrG0-27" edge="1">
          <mxGeometry relative="1" as="geometry">
            <mxPoint x="1182.5789473684213" y="679.7894736842106" as="targetPoint" />
          </mxGeometry>
        </mxCell>
        <mxCell id="qI7ad0C5QOCOGanBFrG0-27" value="&lt;p style=&quot;margin:0px;margin-top:4px;text-align:center;&quot;&gt;&lt;b&gt;VipTerem&lt;/b&gt;&lt;br&gt;&lt;/p&gt;&lt;hr size=&quot;1&quot;&gt;&lt;p style=&quot;margin:0px;margin-left:4px;&quot;&gt;+ VipTerem(alapAr:int, sorokSzama:int, ulesSorban:int)&lt;/p&gt;&lt;p style=&quot;margin:0px;margin-left:4px;&quot;&gt;+ Vip() : boolean&lt;/p&gt;&lt;p style=&quot;margin:0px;margin-left:4px;&quot;&gt;&lt;/p&gt;" style="verticalAlign=top;align=left;overflow=fill;fontSize=12;fontFamily=Helvetica;html=1;whiteSpace=wrap;" parent="1" vertex="1">
          <mxGeometry x="1010" y="680" width="345" height="70" as="geometry" />
        </mxCell>
        <mxCell id="qI7ad0C5QOCOGanBFrG0-30" value="" style="endArrow=block;dashed=1;endFill=0;endSize=12;html=1;rounded=0;entryX=0.5;entryY=1;entryDx=0;entryDy=0;exitX=0.5;exitY=0;exitDx=0;exitDy=0;edgeStyle=elbowEdgeStyle;elbow=vertical;" parent="1" source="qI7ad0C5QOCOGanBFrG0-27" target="qI7ad0C5QOCOGanBFrG0-22" edge="1">
          <mxGeometry width="160" relative="1" as="geometry">
            <mxPoint x="790" y="580" as="sourcePoint" />
            <mxPoint x="950" y="580" as="targetPoint" />
            <Array as="points">
              <mxPoint x="990" y="640" />
            </Array>
          </mxGeometry>
        </mxCell>
        <mxCell id="qI7ad0C5QOCOGanBFrG0-31" value="" style="endArrow=block;dashed=1;endFill=0;endSize=12;html=1;rounded=0;entryX=0.5;entryY=1;entryDx=0;entryDy=0;exitX=0.5;exitY=0;exitDx=0;exitDy=0;edgeStyle=elbowEdgeStyle;elbow=vertical;" parent="1" source="qI7ad0C5QOCOGanBFrG0-26" target="qI7ad0C5QOCOGanBFrG0-22" edge="1">
          <mxGeometry width="160" relative="1" as="geometry">
            <mxPoint x="830" y="620" as="sourcePoint" />
            <mxPoint x="990" y="620" as="targetPoint" />
          </mxGeometry>
        </mxCell>
        <mxCell id="qI7ad0C5QOCOGanBFrG0-32" value="&lt;p style=&quot;margin:0px;margin-top:4px;text-align:center;&quot;&gt;&lt;b&gt;Film&lt;/b&gt;&lt;br&gt;&lt;/p&gt;&lt;hr size=&quot;1&quot;&gt;&lt;p style=&quot;margin:0px;margin-left:4px;&quot;&gt;+ cim : string&lt;/p&gt;&lt;p style=&quot;margin:0px;margin-left:4px;&quot;&gt;+ ido : Ido&lt;/p&gt;&lt;hr size=&quot;1&quot;&gt;&lt;p style=&quot;margin:0px;margin-left:4px;&quot;&gt;+ Film(cim:string, ido:Ido)&lt;/p&gt;&lt;p style=&quot;margin:0px;margin-left:4px;&quot;&gt;+ helyekSzama() : int&lt;/p&gt;&lt;p style=&quot;margin:0px;margin-left:4px;&quot;&gt;+ UresHely(nev:string, ules:Ules)&lt;/p&gt;&lt;p style=&quot;margin:0px;margin-left:4px;&quot;&gt;+ VanFoglalt(nev:string)&lt;br&gt;&lt;/p&gt;" style="verticalAlign=top;align=left;overflow=fill;fontSize=12;fontFamily=Helvetica;html=1;whiteSpace=wrap;" parent="1" vertex="1">
          <mxGeometry x="1130" y="280" width="190" height="140" as="geometry" />
        </mxCell>
        <mxCell id="qI7ad0C5QOCOGanBFrG0-33" value="&lt;p style=&quot;margin:0px;margin-top:4px;text-align:center;&quot;&gt;&lt;b&gt;Foglalas&lt;/b&gt;&lt;br&gt;&lt;/p&gt;&lt;hr size=&quot;1&quot;&gt;&lt;p style=&quot;margin:0px;margin-left:4px;&quot;&gt;+ allapot : Allapot&lt;/p&gt;&lt;p style=&quot;margin:0px;margin-left:4px;&quot;&gt;+nev : string&lt;/p&gt;&lt;p style=&quot;margin:0px;margin-left:4px;&quot;&gt;+ ules : Ules?&lt;br&gt;&lt;/p&gt;&lt;hr size=&quot;1&quot;&gt;&lt;p style=&quot;margin:0px;margin-left:4px;&quot;&gt;+ Foglalas()&lt;/p&gt;&lt;p style=&quot;margin:0px;margin-left:4px;&quot;&gt;+ Foglalas(nev:string, ules:Ules)&lt;br&gt;&lt;/p&gt;" style="verticalAlign=top;align=left;overflow=fill;fontSize=12;fontFamily=Helvetica;html=1;whiteSpace=wrap;" parent="1" vertex="1">
          <mxGeometry x="1130" y="480" width="190" height="140" as="geometry" />
        </mxCell>
        <object label="" alma="baracsk" id="qI7ad0C5QOCOGanBFrG0-34">
          <mxCell style="endArrow=diamondThin;endFill=0;endSize=24;html=1;rounded=0;entryX=0.5;entryY=1;entryDx=0;entryDy=0;exitX=0.5;exitY=0;exitDx=0;exitDy=0;" parent="1" source="qI7ad0C5QOCOGanBFrG0-22" target="qI7ad0C5QOCOGanBFrG0-23" edge="1">
            <mxGeometry width="160" relative="1" as="geometry">
              <mxPoint x="860" y="260" as="sourcePoint" />
              <mxPoint x="1020" y="260" as="targetPoint" />
            </mxGeometry>
          </mxCell>
        </object>
        <mxCell id="qI7ad0C5QOCOGanBFrG0-36" value="" style="endArrow=diamondThin;endFill=0;endSize=24;html=1;rounded=0;entryX=0.5;entryY=1;entryDx=0;entryDy=0;exitX=0.5;exitY=0;exitDx=0;exitDy=0;" parent="1" source="qI7ad0C5QOCOGanBFrG0-33" target="qI7ad0C5QOCOGanBFrG0-32" edge="1">
          <mxGeometry width="160" relative="1" as="geometry">
            <mxPoint x="1290" y="450" as="sourcePoint" />
            <mxPoint x="1450" y="450" as="targetPoint" />
          </mxGeometry>
        </mxCell>
        <mxCell id="qI7ad0C5QOCOGanBFrG0-37" value="" style="endArrow=open;endFill=1;endSize=12;html=1;rounded=0;entryX=1;entryY=0.25;entryDx=0;entryDy=0;exitX=0;exitY=0.557;exitDx=0;exitDy=0;exitPerimeter=0;edgeStyle=elbowEdgeStyle;elbow=vertical;" parent="1" source="qI7ad0C5QOCOGanBFrG0-32" target="qI7ad0C5QOCOGanBFrG0-22" edge="1">
          <mxGeometry width="160" relative="1" as="geometry">
            <mxPoint x="1040" y="430" as="sourcePoint" />
            <mxPoint x="1200" y="430" as="targetPoint" />
          </mxGeometry>
        </mxCell>
        <mxCell id="qI7ad0C5QOCOGanBFrG0-38" value="&lt;p style=&quot;margin:0px;margin-top:4px;text-align:center;&quot;&gt;&lt;b&gt;Szemely&lt;/b&gt;&lt;/p&gt;&lt;hr size=&quot;1&quot;&gt;&lt;div&gt;&amp;nbsp;+ nev : string &amp;nbsp;&amp;nbsp; {readonly}&lt;/div&gt;&amp;nbsp;+ method : int &amp;nbsp;&amp;nbsp; {readonly}&lt;hr size=&quot;1&quot;&gt;&lt;div&gt;&amp;nbsp;+ Fizet(szinhaz:Szinhaz, cim:string, ido:Ido, terem:Terem, tipus:Tipus)&lt;/div&gt;&lt;div&gt;&amp;nbsp;+ Fizet(szinhaz:Szinhaz, cim:string, ido:Ido, terem:Terem, tipus:Tipus, ules:Ules)&lt;/div&gt;&lt;div&gt;&amp;nbsp;+ Foglal(szinhaz:Szinhaz, cim:string, ido:Ido, terem:Terem, ules:Ules)&lt;/div&gt;&lt;div&gt;&amp;nbsp;+ Szemely(nev:string, penz:int)&lt;br&gt;&lt;/div&gt;" style="verticalAlign=top;align=left;overflow=fill;fontSize=12;fontFamily=Helvetica;html=1;whiteSpace=wrap;" parent="1" vertex="1">
          <mxGeometry x="30" y="40" width="450" height="140" as="geometry" />
        </mxCell>
        <mxCell id="qI7ad0C5QOCOGanBFrG0-39" value="" style="endArrow=open;endFill=1;endSize=12;html=1;rounded=0;entryX=0;entryY=0.25;entryDx=0;entryDy=0;exitX=1;exitY=0.321;exitDx=0;exitDy=0;exitPerimeter=0;" parent="1" source="qI7ad0C5QOCOGanBFrG0-38" target="qI7ad0C5QOCOGanBFrG0-23" edge="1">
          <mxGeometry width="160" relative="1" as="geometry">
            <mxPoint x="420" y="230" as="sourcePoint" />
            <mxPoint x="580" y="230" as="targetPoint" />
          </mxGeometry>
        </mxCell>
        <mxCell id="wcJDTHLtC0xWf3YLXLJS-3" value="vetitotermek" style="text;html=1;strokeColor=none;fillColor=none;align=center;verticalAlign=middle;whiteSpace=wrap;rounded=0;" vertex="1" parent="1">
          <mxGeometry x="800" y="250" width="60" height="30" as="geometry" />
        </mxCell>
        <mxCell id="wcJDTHLtC0xWf3YLXLJS-4" value="&lt;font style=&quot;font-size: 21px;&quot;&gt;Sablonfüggvény tervezési minta&lt;/font&gt;" style="text;html=1;strokeColor=none;fillColor=none;align=center;verticalAlign=middle;whiteSpace=wrap;rounded=0;rotation=0;" vertex="1" parent="1">
          <mxGeometry x="-160" y="720" width="370" height="60" as="geometry" />
        </mxCell>
        <mxCell id="wcJDTHLtC0xWf3YLXLJS-5" value="&lt;p style=&quot;margin:0px;margin-top:4px;text-align:center;&quot;&gt;&lt;b&gt;Nezettseg&lt;/b&gt;&lt;br&gt;&lt;/p&gt;&lt;hr size=&quot;1&quot;&gt;&lt;p style=&quot;margin:0px;margin-left:4px;&quot;&gt;+ cim : string&lt;/p&gt;&lt;p style=&quot;margin:0px;margin-left:4px;&quot;&gt;+ osszNezo : int&lt;br&gt;&lt;/p&gt;&lt;hr size=&quot;1&quot;&gt;&lt;p style=&quot;margin:0px;margin-left:4px;&quot;&gt;+ Nezettseg(cim:string)&lt;br&gt;&lt;/p&gt;" style="verticalAlign=top;align=left;overflow=fill;fontSize=12;fontFamily=Helvetica;html=1;whiteSpace=wrap;" vertex="1" parent="1">
          <mxGeometry x="1131" y="60" width="190" height="100" as="geometry" />
        </mxCell>
        <mxCell id="wcJDTHLtC0xWf3YLXLJS-6" value="&lt;p style=&quot;margin:0px;margin-top:4px;text-align:center;&quot;&gt;&lt;b&gt;Ido&lt;/b&gt;&lt;br&gt;&lt;/p&gt;&lt;hr size=&quot;1&quot;&gt;&lt;p style=&quot;margin:0px;margin-left:4px;&quot;&gt;+ kezdet : time&lt;/p&gt;&lt;p style=&quot;margin:0px;margin-left:4px;&quot;&gt;+ veg : time&lt;br&gt;&lt;/p&gt;&lt;hr size=&quot;1&quot;&gt;&lt;p style=&quot;margin:0px;margin-left:4px;&quot;&gt;+ Ido(kezdet:time, veg:time)&lt;br&gt;&lt;/p&gt;" style="verticalAlign=top;align=left;overflow=fill;fontSize=12;fontFamily=Helvetica;html=1;whiteSpace=wrap;" vertex="1" parent="1">
          <mxGeometry x="1355" y="280" width="190" height="100" as="geometry" />
        </mxCell>
      </root>
    </mxGraphModel>
  </diagram>
</mxfile>
